<?xml version="1.0" encoding="UTF-8"?>
<svg id="_圖層_2" data-name="圖層_2" xmlns="http://www.w3.org/2000/svg" viewBox="0 0 40.52 30.02">
  <defs>
    <style>
      .cls-1 {
        fill: #fff;
      }

      .cls-2 {
        fill: none;
      }
    </style>
  </defs>
  <g id="_圖層_1-2" data-name="圖層_1">
    <g>
      <g>
        <path class="cls-1" d="M20.26,2.24c-3.72,0-6.75,3.03-6.75,6.76s3.03,6.76,6.75,6.76,6.76-3.03,6.76-6.76-3.03-6.76-6.76-6.76ZM20.26,13.51c-2.48,0-4.5-2.02-4.5-4.51s2.02-4.51,4.5-4.51,4.51,2.03,4.51,4.51-2.02,4.51-4.51,4.51Z"/>
        <polygon class="cls-1" points="32.49 27.77 30.13 27.77 27.54 19.55 12.99 19.55 10.39 27.77 8.03 27.77 11.34 17.3 29.18 17.3 32.49 27.77"/>
      </g>
      <rect class="cls-2" width="40.52" height="30.02"/>
    </g>
  </g>
</svg>