<?xml version="1.0" encoding="UTF-8"?>
<svg id="_圖層_2" data-name="圖層_2" xmlns="http://www.w3.org/2000/svg" viewBox="0 0 40.52 30.02">
  <defs>
    <style>
      .cls-1 {
        fill: #fff;
      }

      .cls-2, .cls-3 {
        fill: none;
      }

      .cls-3 {
        stroke: #fff;
        stroke-miterlimit: 10;
        stroke-width: 3px;
      }
    </style>
  </defs>
  <g id="_圖層_1-2" data-name="圖層_1">
    <g>
      <g>
        <polygon class="cls-3" points="23.91 26.45 8.17 26.45 3.24 11.75 28.83 11.75 23.91 26.45"/>
        <line class="cls-3" x1="16.04" y1="3.49" x2="16.04" y2="15.99"/>
        <circle class="cls-1" cx="29.16" cy="11.65" r="9.91"/>
        <g>
          <path d="M22.1,13.35c.3.14.59.21.86.21.44,0,.76-.17.97-.52s.32-.76.35-1.25c-.26.34-.62.52-1.07.52-.28,0-.53-.07-.75-.2-.22-.13-.39-.31-.51-.55s-.18-.5-.18-.8c0-.22.04-.43.11-.63s.18-.36.32-.51c.14-.15.3-.26.49-.33.19-.08.39-.11.6-.11.53,0,.93.19,1.21.58s.42.95.42,1.69c0,.58-.07,1.07-.22,1.47s-.37.69-.66.9c-.29.2-.65.3-1.08.3-.11,0-.22,0-.31-.01s-.19-.03-.29-.05c-.1-.02-.22-.06-.35-.1l.08-.61ZM23.32,9.74c-.16,0-.31.04-.44.13-.13.08-.23.2-.3.36s-.11.33-.11.52c0,.29.08.53.25.72s.37.29.62.29.45-.09.61-.27c.16-.18.24-.41.24-.68,0-.19-.04-.37-.11-.53s-.18-.29-.31-.38-.28-.14-.44-.14Z"/>
          <path d="M25.93,13.35c.3.14.59.21.86.21.44,0,.76-.17.97-.52s.32-.76.35-1.25c-.26.34-.62.52-1.07.52-.28,0-.53-.07-.75-.2-.22-.13-.39-.31-.51-.55s-.18-.5-.18-.8c0-.22.04-.43.11-.63s.18-.36.32-.51c.14-.15.3-.26.49-.33.19-.08.39-.11.6-.11.53,0,.93.19,1.21.58s.42.95.42,1.69c0,.58-.07,1.07-.22,1.47s-.37.69-.66.9c-.29.2-.65.3-1.08.3-.11,0-.22,0-.31-.01s-.19-.03-.29-.05c-.1-.02-.22-.06-.35-.1l.08-.61ZM27.15,9.74c-.16,0-.31.04-.44.13-.13.08-.23.2-.3.36s-.11.33-.11.52c0,.29.08.53.25.72s.37.29.62.29.45-.09.61-.27c.16-.18.24-.41.24-.68,0-.19-.04-.37-.11-.53s-.18-.29-.31-.38-.28-.14-.44-.14Z"/>
          <path d="M29.76,13.35c.3.14.59.21.86.21.44,0,.76-.17.97-.52s.32-.76.35-1.25c-.26.34-.62.52-1.07.52-.28,0-.53-.07-.75-.2-.22-.13-.39-.31-.51-.55s-.18-.5-.18-.8c0-.22.04-.43.11-.63s.18-.36.32-.51c.14-.15.3-.26.49-.33.19-.08.39-.11.6-.11.53,0,.93.19,1.21.58s.42.95.42,1.69c0,.58-.07,1.07-.22,1.47s-.37.69-.66.9c-.29.2-.65.3-1.08.3-.11,0-.22,0-.31-.01s-.19-.03-.29-.05c-.1-.02-.22-.06-.35-.1l.08-.61ZM30.98,9.74c-.16,0-.31.04-.44.13-.13.08-.23.2-.3.36s-.11.33-.11.52c0,.29.08.53.25.72s.37.29.62.29.45-.09.61-.27c.16-.18.24-.41.24-.68,0-.19-.04-.37-.11-.53s-.18-.29-.31-.38-.28-.14-.44-.14Z"/>
          <path d="M34.64,11.87h-1.38v-.52h1.38v-1.33h.53v1.33h1.38v.52h-1.38v1.33h-.53v-1.33Z"/>
        </g>
      </g>
      <rect class="cls-2" width="40.52" height="30.02"/>
    </g>
  </g>
</svg>