<?xml version="1.0" encoding="utf-8"?>
<!-- Generator: Adobe Illustrator 28.4.1, SVG Export Plug-In . SVG Version: 6.00 Build 0)  -->
<svg version="1.1" id="图层_1" xmlns="http://www.w3.org/2000/svg" xmlns:xlink="http://www.w3.org/1999/xlink" x="0px" y="0px"
	 viewBox="0 0 190 190" style="enable-background:new 0 0 190 190;" xml:space="preserve">
<style type="text/css">
	.st0{fill:#CBFF66;}
</style>
<defs>
	
		<animate  accumulate="none" additive="replace" attributeName="opacity" begin="0s" calcMode="spline" dur="1.5015015s" fill="freeze" from="0" keySplines="0.167 0.167 0.833 0.833;0.167 0.167 0.833 0.833" keyTimes="0;0.4666666;1" repeatCount="indefinite" restart="always" to="1" values="0;0;1">
		</animate>
	
		<animateMotion  accumulate="none" additive="replace" begin="0s" calcMode="spline" dur="1.5015015s" fill="freeze" keyPoints="0;1;1" keySplines="0.167 0.167 0.833 0.833;0 0 0 0" keyTimes="0;0.4666667;1" path="M62 73.5 C62,73.5 98,40.5 98,40.5 C98,40.5 98,40.5 98,40.5 " repeatCount="indefinite" restart="always">
		</animateMotion>
	
		<animateTransform  accumulate="none" additive="sum" attributeName="transform" begin="0s" calcMode="spline" dur="1.5015015s" fill="freeze" from="0" keySplines="0.167 0.167 0.833 0.833;0 0 0 0" keyTimes="0;0.4666667;1" repeatCount="indefinite" restart="always" to="90" type="rotate" values="0;90;90">
		</animateTransform>
	
		<animateTransform  accumulate="none" additive="sum" attributeName="transform" begin="0s" calcMode="spline" dur="1.5015015s" fill="freeze" from="1 1" keySplines="0.167 0.167 0.833 0.833;0 0 0 0" keyTimes="0;0.4666667;1" repeatCount="indefinite" restart="always" to="2.75 2.75" type="scale" values="1 1;2.75 2.75;2.75 2.75">
		</animateTransform>
	
		<animateTransform  accumulate="none" additive="sum" attributeName="transform" begin="0s" calcMode="spline" dur="1.5015015s" fill="freeze" from="-11 -16.5" keySplines="0 0 1 1" keyTimes="0;1" repeatCount="indefinite" restart="always" to="-11 -16.5" type="translate" values="-11 -16.5;-11 -16.5">
		</animateTransform>
	
		<animate  accumulate="none" additive="replace" attributeName="opacity" attributeType="XML" calcMode="linear" dur="2s" fill="remove" from="0" restart="always" to="1">
		</animate>
</defs>
<g id="_R_G">
	<g id="_R_G_L_3_G" transform=" translate(95, 95) translate(-84.5, -84.5)">
		<path id="_R_G_L_3_G_D_0_P_0" class="st0" d="M168,84.1c0,46.3-37.5,83.9-83.9,83.9c-46.3,0-83.9-37.5-83.9-83.9
			c0-46.3,37.5-83.9,83.9-83.9C130.4,0.2,168,37.8,168,84.1z"/>
	</g>
	<g id="_R_G_L_2_G" transform=" translate(95, 95) translate(-56, -38)">
		<path id="_R_G_L_2_G_D_0_P_0" d="M64.9,0.3v18c0,2.5-0.1,4.4-0.4,5.7c-0.3,1.4-0.8,2.6-1.5,3.7c-1.1,1.7-2.5,3-4.3,3.9
			c-1.8,0.9-3.8,1.3-6.2,1.3c-1.8,0-3.4-0.3-4.9-0.8c-1.5-0.5-2.7-1.3-3.8-2.2c-1.1-1-1.9-2.1-2.5-3.5c-0.8-1.8-1.2-4.7-1.2-8.7V0.3
			h4.6v16.8c0,2.2,0.1,3.9,0.2,5c0.1,1.2,0.5,2.2,0.9,3.1c0.6,1.2,1.5,2.1,2.8,2.8c1.2,0.7,2.6,1,4.1,1c1.7,0,3.1-0.4,4.2-1.1
			s1.9-1.8,2.5-3c0.5-1.3,0.9-2.7,1-4.4c0-0.4,0-1.5,0-3.2V0.3H64.9z"/>
		<path id="_R_G_L_2_G_D_1_P_0" d="M99,0.2L86.5,18.7v13.6h-4.6V18.8L69.3,0.2h5.7l7.9,12c0.6,0.9,1.1,1.8,1.4,2.4
			c0.5-0.9,0.9-1.6,1.3-2.2l8-12.1H99z"/>
		<path id="_R_G_L_2_G_D_2_P_0" d="M25.8,42.2v32h-5.9L9.8,56.9c-1.8-3.1-3-5.3-3.6-6.6c-0.7-1.3-1.2-2.8-1.8-4.4
			c0.3,3.5,0.4,7.5,0.4,12.1v16.3H0.2v-32h6.2l10.9,18.9c2.2,3.8,3.7,6.9,4.4,9.2c-0.2-2.1-0.3-3.6-0.4-4.3c0-1.2-0.1-2.5-0.1-3.7
			c0-1.2,0-2,0-2.3c0-0.3,0-1.1,0-2.3V42.2H25.8z"/>
		<path id="_R_G_L_2_G_D_3_P_0" d="M47.7,41.7c3.2,0,6,0.7,8.4,2.1c2.3,1.4,4.1,3.4,5.4,5.9c1.2,2.5,1.8,5.4,1.8,8.6
			c0,2.5-0.4,4.8-1.1,6.9c-0.7,2.1-1.7,3.8-3.1,5.3c-1.4,1.5-3,2.6-4.9,3.3c-1.9,0.8-4,1.2-6.4,1.2c-3.2,0-6-0.7-8.4-2.2
			s-4.1-3.4-5.4-5.9c-1.2-2.5-1.8-5.4-1.8-8.5c0-2.4,0.3-4.6,1-6.6c0.7-2,1.7-3.8,3-5.3c1.3-1.5,2.9-2.7,4.9-3.5
			C43.1,42.1,45.3,41.7,47.7,41.7z M47.6,45.3c-2,0-3.9,0.5-5.5,1.6c-1.6,1.1-2.8,2.6-3.7,4.6c-0.9,2-1.3,4.2-1.3,6.7
			c0,1.8,0.3,3.6,0.8,5.2c0.5,1.6,1.2,3,2.2,4.2c1,1.2,2.1,2.1,3.4,2.7c1.3,0.6,2.7,0.9,4.3,0.9c1.5,0,2.9-0.3,4.2-0.9
			c1.3-0.6,2.4-1.5,3.4-2.7c1-1.2,1.7-2.5,2.2-4.1c0.5-1.5,0.8-3.3,0.8-5.2c0-2-0.2-3.8-0.8-5.4c-0.5-1.6-1.2-3-2.2-4.2
			c-1-1.2-2.1-2.1-3.4-2.7C50.7,45.6,49.2,45.3,47.6,45.3z"/>
		<path id="_R_G_L_2_G_D_4_P_0" d="M111.1,42.2l-9.6,32h-5.8l-5.6-21c-0.2-0.7-0.5-1.4-0.7-2.2c-0.2-0.8-0.4-1.7-0.6-2.7
			s-0.4-1.8-0.5-2.4c-0.7,3.6-1.2,6-1.6,7.3l-5.3,21h-5.9l-9.8-32h5L76.3,61c1,3.4,1.8,6.4,2.2,8.8c0.3-1.7,0.6-3.3,0.9-4.8
			c0.3-1.5,0.7-2.9,1.1-4.2l4.6-18.6h6.5L96.6,61c0.1,0.5,0.4,1.8,0.9,3.7c0.5,1.9,0.9,3.7,1.3,5.1c0.4-2.5,1.1-5.4,2.1-8.8
			l5.5-18.7H111.1z"/>
	</g>
	<g id="_R_G_L_0_G">
		<path id="_R_G_L_0_G_D_0_P_0" d="M52,57.2h7.6c1.5,0,2.5,0,3,0c0.5,0,1,0.1,1.6,0.1c2.4,0.3,4.3,1.2,5.7,2.7
			c1.4,1.4,2.1,3.2,2.1,5.4c0,2.1-0.6,3.7-1.8,5c-1.2,1.2-2.9,2.1-5,2.6c2.4,0.3,4.3,1.1,5.7,2.3c1.4,1.2,2.1,3,2.1,5.3
			c0,1.6-0.4,3-1.2,4.3c-0.8,1.3-1.8,2.3-3.2,3c-0.9,0.5-1.9,0.8-3,1c-1.2,0.2-2.6,0.3-4.5,0.3H52V57.2z M56.5,61.2v9.7h3.2
			c5.1,0,7.7-1.6,7.7-4.8c0-1.1-0.3-2-0.8-2.7c-0.5-0.7-1.2-1.2-2.1-1.5c-0.9-0.3-1.7-0.5-2.6-0.6s-1.9-0.1-3.1-0.1H56.5z
			 M56.5,74.6v10.7H60c2.3,0,4.2-0.4,5.8-1.1c1.6-0.7,2.4-2.1,2.4-4.1c0-2.3-0.9-3.8-2.6-4.6c-1.8-0.7-4-1.1-6.7-1.1H56.5z"/>
	</g>
</g>
<g id="time_group">
</g>
</svg>
