<svg xmlns="http://www.w3.org/2000/svg" xmlns:xlink="http://www.w3.org/1999/xlink" preserveAspectRatio="xMidYMid meet" width="190" height="190" viewBox="0 0 190 190" style="width:100%;height:100%"><defs><animateTransform repeatCount="indefinite" dur="4.7047047s" begin="0s" xlink:href="#_R_G_L_1_G" fill="freeze" attributeName="transform" from="1 1" to="1 1" type="scale" additive="sum" keyTimes="0;0.2056738;0.2907801;0.3829787;0.5957447;0.6879432;0.7801418;1" values="1 1;1 1;1 0.17;1 1;1 1;1 0.17;1 1;1 1" keySplines="0.167 0.167 0.833 0.833;0.167 0.167 0.833 0.833;0.167 0.167 0.833 0.833;0.167 0.167 0.833 0.833;0.167 0.167 0.833 0.833;0.167 0.167 0.833 0.833;0 0 0 0" calcMode="spline"/><animateTransform repeatCount="indefinite" dur="4.7047047s" begin="0s" xlink:href="#_R_G_L_1_G" fill="freeze" attributeName="transform" from="-20 -7.5" to="-20 -7.5" type="translate" additive="sum" keyTimes="0;0.9929078;1" values="-20 -7.5;-20 -7.5;-20 -7.5" keySplines="0 0 1 1;0 0 0 0" calcMode="spline"/><animate attributeType="XML" attributeName="opacity" dur="5s" from="0" to="1" xlink:href="#time_group"/></defs><g id="_R_G"><g id="_R_G_L_3_G" transform=" translate(95, 95) translate(-84.5, -84.5)"><path id="_R_G_L_3_G_D_0_P_0" fill="#cbff66" fill-opacity="1" fill-rule="nonzero" d=" M167.97 84.11 C167.97,130.43 130.43,167.97 84.11,167.97 C37.8,167.97 0.25,130.43 0.25,84.11 C0.25,37.8 37.8,0.25 84.11,0.25 C130.43,0.25 167.97,37.8 167.97,84.11z "/></g><g id="_R_G_L_2_G" transform=" translate(95, 95) translate(-56, -38)"><path id="_R_G_L_2_G_D_0_P_0" fill="#000000" fill-opacity="1" fill-rule="nonzero" d=" M64.93 0.3 C64.93,0.3 64.93,18.3 64.93,18.3 C64.93,20.77 64.79,22.68 64.52,24.04 C64.24,25.4 63.75,26.63 63.05,27.74 C61.99,29.43 60.57,30.71 58.78,31.59 C57,32.46 54.94,32.9 52.6,32.9 C50.83,32.9 49.21,32.64 47.73,32.13 C46.26,31.61 44.99,30.87 43.93,29.91 C42.86,28.95 42.02,27.77 41.39,26.36 C40.57,24.52 40.15,21.63 40.15,17.71 C40.15,17.71 40.15,0.3 40.15,0.3 C40.15,0.3 44.72,0.3 44.72,0.3 C44.72,0.3 44.72,17.06 44.72,17.06 C44.72,19.24 44.8,20.91 44.95,22.07 C45.09,23.23 45.4,24.26 45.87,25.16 C46.48,26.37 47.4,27.31 48.62,27.99 C49.85,28.67 51.22,29.01 52.74,29.01 C54.43,29.01 55.82,28.63 56.91,27.88 C58,27.13 58.82,26.12 59.36,24.85 C59.9,23.57 60.22,22.11 60.31,20.45 C60.34,20.05 60.36,18.98 60.36,17.24 C60.36,17.24 60.36,0.3 60.36,0.3 C60.36,0.3 64.93,0.3 64.93,0.3z "/><path id="_R_G_L_2_G_D_1_P_0" fill="#000000" fill-opacity="1" fill-rule="nonzero" d=" M99.01 0.25 C99.01,0.25 86.51,18.67 86.51,18.67 C86.51,18.67 86.51,32.27 86.51,32.27 C86.51,32.27 81.94,32.27 81.94,32.27 C81.94,32.27 81.94,18.84 81.94,18.84 C81.94,18.84 69.29,0.25 69.29,0.25 C69.29,0.25 74.95,0.25 74.95,0.25 C74.95,0.25 82.87,12.25 82.87,12.25 C83.51,13.2 83.97,14 84.25,14.64 C84.71,13.77 85.15,13.02 85.57,12.39 C85.57,12.39 93.59,0.25 93.59,0.25 C93.59,0.25 99.01,0.25 99.01,0.25z "/><path id="_R_G_L_2_G_D_2_P_0" fill="#000000" fill-opacity="1" fill-rule="nonzero" d=" M25.84 42.25 C25.84,42.25 25.84,74.27 25.84,74.27 C25.84,74.27 19.94,74.27 19.94,74.27 C19.94,74.27 9.81,56.9 9.81,56.9 C8.06,53.81 6.86,51.61 6.19,50.32 C5.53,49.04 4.94,47.56 4.42,45.91 C4.69,49.42 4.82,53.45 4.82,58 C4.82,58 4.82,74.27 4.82,74.27 C4.82,74.27 0.25,74.27 0.25,74.27 C0.25,74.27 0.25,42.25 0.25,42.25 C0.25,42.25 6.49,42.25 6.49,42.25 C6.49,42.25 17.38,61.12 17.38,61.12 C19.59,64.95 21.06,68 21.81,70.28 C21.61,68.14 21.49,66.7 21.46,65.97 C21.43,64.72 21.4,63.48 21.38,62.27 C21.36,61.05 21.34,60.28 21.33,59.97 C21.32,59.66 21.32,58.88 21.32,57.65 C21.32,57.65 21.32,42.25 21.32,42.25 C21.32,42.25 25.84,42.25 25.84,42.25z "/><path id="_R_G_L_2_G_D_3_P_0" fill="#000000" fill-opacity="1" fill-rule="nonzero" d=" M47.69 41.66 C50.91,41.66 53.69,42.37 56.04,43.79 C58.39,45.2 60.18,47.16 61.4,49.67 C62.62,52.18 63.23,55.05 63.23,58.28 C63.23,60.81 62.87,63.11 62.16,65.16 C61.45,67.22 60.42,68.97 59.07,70.42 C57.71,71.88 56.09,72.99 54.2,73.75 C52.31,74.52 50.19,74.9 47.83,74.9 C44.62,74.9 41.84,74.18 39.48,72.75 C37.12,71.32 35.33,69.35 34.11,66.82 C32.88,64.3 32.27,61.45 32.27,58.28 C32.27,55.89 32.61,53.68 33.3,51.66 C33.98,49.64 34.98,47.88 36.3,46.4 C37.61,44.92 39.24,43.75 41.18,42.92 C43.13,42.08 45.3,41.66 47.69,41.66z  M47.64 45.27 C45.59,45.27 43.77,45.82 42.17,46.9 C40.57,47.99 39.33,49.52 38.46,51.5 C37.6,53.47 37.16,55.72 37.16,58.24 C37.16,60.09 37.42,61.84 37.94,63.49 C38.45,65.13 39.19,66.53 40.14,67.69 C41.09,68.86 42.21,69.75 43.5,70.36 C44.79,70.98 46.22,71.29 47.78,71.29 C49.31,71.29 50.72,70.98 52.01,70.35 C53.3,69.73 54.43,68.83 55.39,67.66 C56.35,66.49 57.08,65.13 57.58,63.59 C58.08,62.05 58.33,60.33 58.33,58.42 C58.33,56.42 58.08,54.62 57.58,53.02 C57.08,51.42 56.35,50.03 55.39,48.86 C54.43,47.69 53.29,46.8 51.98,46.19 C50.66,45.58 49.22,45.27 47.64,45.27z "/><path id="_R_G_L_2_G_D_4_P_0" fill="#000000" fill-opacity="1" fill-rule="nonzero" d=" M111.11 42.25 C111.11,42.25 101.51,74.27 101.51,74.27 C101.51,74.27 95.7,74.27 95.7,74.27 C95.7,74.27 90.14,53.24 90.14,53.24 C89.89,52.57 89.67,51.84 89.48,51.06 C89.28,50.28 89.08,49.37 88.87,48.32 C88.66,47.27 88.49,46.48 88.36,45.95 C87.65,49.52 87.12,51.95 86.77,53.24 C86.77,53.24 81.5,74.27 81.5,74.27 C81.5,74.27 75.6,74.27 75.6,74.27 C75.6,74.27 65.76,42.25 65.76,42.25 C65.76,42.25 70.75,42.25 70.75,42.25 C70.75,42.25 76.28,60.98 76.28,60.98 C77.29,64.41 78.04,67.36 78.52,69.81 C78.81,68.14 79.12,66.55 79.46,65.03 C79.8,63.52 80.16,62.12 80.54,60.84 C80.54,60.84 85.16,42.25 85.16,42.25 C85.16,42.25 91.71,42.25 91.71,42.25 C91.71,42.25 96.61,60.98 96.61,60.98 C96.75,61.51 97.05,62.74 97.51,64.68 C97.97,66.62 98.41,68.33 98.81,69.81 C99.22,67.31 99.92,64.37 100.92,60.98 C100.92,60.98 106.4,42.25 106.4,42.25 C106.4,42.25 111.11,42.25 111.11,42.25z "/></g><g id="_R_G_L_1_G" transform=" translate(99.5, 39)"><path id="_R_G_L_1_G_D_0_P_0" fill="#000000" fill-opacity="1" fill-rule="nonzero" d=" M38.78 7.08 C38.78,10.85 37.47,13.9 35.86,13.9 C34.24,13.9 32.93,10.85 32.93,7.08 C32.93,3.31 34.24,0.25 35.86,0.25 C37.47,0.25 38.78,3.31 38.78,7.08z "/><path id="_R_G_L_1_G_D_1_P_0" fill="#000000" fill-opacity="1" fill-rule="nonzero" d=" M6.1 7.08 C6.1,10.85 4.79,13.9 3.18,13.9 C1.56,13.9 0.25,10.85 0.25,7.08 C0.25,3.31 1.56,0.25 3.18,0.25 C4.79,0.25 6.1,3.31 6.1,7.08z "/></g><g id="_R_G_L_0_G" transform=" translate(98, 40.5) rotate(90) scale(2.75, 2.75) translate(-11, -16.5)"><path id="_R_G_L_0_G_D_0_P_0" fill="#000000" fill-opacity="1" fill-rule="nonzero" d=" M0.25 0.25 C0.25,0.25 7.83,0.25 7.83,0.25 C9.33,0.25 10.33,0.26 10.83,0.29 C11.33,0.31 11.88,0.36 12.47,0.44 C14.88,0.77 16.79,1.65 18.2,3.09 C19.61,4.53 20.31,6.32 20.31,8.46 C20.31,10.52 19.71,12.18 18.5,13.41 C17.29,14.65 15.62,15.51 13.47,16.01 C15.85,16.34 17.74,17.12 19.13,18.36 C20.53,19.59 21.23,21.36 21.23,23.67 C21.23,25.23 20.84,26.66 20.08,27.95 C19.31,29.23 18.24,30.24 16.87,30.98 C15.99,31.45 14.98,31.78 13.83,31.97 C12.68,32.17 11.2,32.27 9.37,32.27 C9.37,32.27 0.25,32.27 0.25,32.27 C0.25,32.27 0.25,0.25 0.25,0.25z  M4.82 4.19 C4.82,4.19 4.82,13.89 4.82,13.89 C4.82,13.89 8.07,13.89 8.07,13.89 C13.18,13.89 15.74,12.27 15.74,9.04 C15.74,7.93 15.47,7.03 14.92,6.34 C14.38,5.66 13.68,5.16 12.82,4.86 C11.96,4.55 11.11,4.36 10.26,4.29 C9.41,4.22 8.38,4.19 7.16,4.19 C7.16,4.19 4.82,4.19 4.82,4.19z  M4.82 17.64 C4.82,17.64 4.82,28.38 4.82,28.38 C4.82,28.38 8.31,28.38 8.31,28.38 C10.59,28.38 12.53,28.02 14.13,27.31 C15.72,26.6 16.52,25.25 16.52,23.25 C16.52,20.92 15.64,19.4 13.88,18.69 C12.12,17.99 9.9,17.64 7.21,17.64 C7.21,17.64 4.82,17.64 4.82,17.64z "/></g></g><g id="time_group"/></svg>